<svg width="506" height="477" viewBox="0 0 506 477" fill="none" xmlns="http://www.w3.org/2000/svg">
<g clip-path="url(#clip0_260_24)">
<path d="M230.94 253.2V469.83" stroke="#808184" stroke-width="8" stroke-miterlimit="10"/>
<path d="M301.37 46.75C391.67 75.16 456.88 156.73 456.88 252.92C456.88 372.72 355.72 469.84 230.94 469.84C106.16 469.84 5 372.71 5 252.92C5 133.13 106.16 36 230.94 36" stroke="#808184" stroke-width="8" stroke-miterlimit="10"/>
<path d="M230.94 252.92H456.88" stroke="#808184" stroke-width="8" stroke-miterlimit="10"/>
<path d="M5 252.92H230.94" stroke="#808184" stroke-width="8" stroke-miterlimit="10"/>
<path d="M230.52 39.4C228.41 39.47 226.31 40.29 224.67 41.85C1.44994 253.41 187.95 433 224.9 464.82C228.31 467.76 233.39 467.71 236.75 464.71C407.69 311.97 343.86 170.58 285.21 94.42" stroke="#808184" stroke-width="8" stroke-miterlimit="10"/>
<path d="M285.21 94.42C265.53 68.87 246.44 50.66 236.99 41.83C235.18 40.13 232.83 39.32 230.52 39.4" stroke="#FF00FE" stroke-width="8" stroke-miterlimit="10"/>
<path d="M266.15 153.14C343.56 144.08 397.69 106.55 397.69 106.55" stroke="#808184" stroke-width="8" stroke-miterlimit="10"/>
<path d="M229.36 155.07C242.09 155.24 254.39 154.52 266.16 153.15" stroke="#FF00FE" stroke-width="8" stroke-miterlimit="10"/>
<path d="M69.9301 100.74C125.32 140.67 180.5 154.41 229.35 155.07" stroke="#808184" stroke-width="8" stroke-miterlimit="10"/>
<path d="M400.01 396.81C218.14 277.97 62.67 397.67 62.67 397.67" stroke="#808184" stroke-width="8" stroke-miterlimit="10"/>
<path d="M230.94 36C255.53 36 279.21 39.77 301.37 46.75" stroke="#FF00FE" stroke-width="8" stroke-miterlimit="10"/>
<path d="M231.5 252L285.21 94.4301" stroke="#FF00FE" stroke-width="10" stroke-linecap="round" stroke-linejoin="round"/>
<path d="M285.21 94.43L301 47.5" stroke="#FF00FE" stroke-width="10" stroke-linecap="round" stroke-linejoin="round"/>
<path d="M230.94 32.26V253.2" stroke="#FF00FE" stroke-width="8" stroke-miterlimit="10"/>
<path d="M285 17.5L285 16.5L284.321 16.5L284.071 17.1305L285 17.5ZM336.707 18.2071C337.098 17.8166 337.098 17.1834 336.707 16.7929L330.343 10.4289C329.953 10.0384 329.319 10.0384 328.929 10.4289C328.538 10.8195 328.538 11.4526 328.929 11.8431L334.586 17.5L328.929 23.1569C328.538 23.5474 328.538 24.1805 328.929 24.5711C329.319 24.9616 329.953 24.9616 330.343 24.5711L336.707 18.2071ZM251.93 103.37L285.929 17.8695L284.071 17.1305L250.071 102.631L251.93 103.37ZM285 18.5L336 18.5L336 16.5L285 16.5L285 18.5Z" fill="#FF00FE"/>
<path d="M351.254 13.926C352.946 14.052 353.954 15.33 353.954 17.004C353.954 19.83 352.1 21.252 348.824 21.252C347.726 21.252 346.556 21.036 345.314 20.604V17.832C346.304 18.408 347.492 18.714 348.77 18.714C349.886 18.714 350.732 18.462 351.326 17.958C351.902 17.454 352.19 17.058 352.19 16.752C352.19 15.546 351.056 14.538 349.112 14.538H347.582V13.08H349.184C350.93 13.08 351.884 12.36 351.884 11.046C351.884 9.714 350.894 8.958 349.112 8.958C348.14 8.958 347.042 9.156 345.71 9.606V8.202C347.06 7.824 348.23 7.644 349.274 7.644C351.974 7.644 353.648 8.958 353.648 11.046C353.648 12.486 352.784 13.53 351.254 13.926ZM359.606 7.644C361.46 7.644 362.648 9.012 362.648 11.208C362.648 13.422 361.478 14.79 359.606 14.79C357.752 14.79 356.582 13.422 356.582 11.208C356.582 9.03 357.752 7.644 359.606 7.644ZM360.758 21.252H359.336L367.634 7.644H369.038L360.758 21.252ZM359.606 8.76C358.598 8.76 357.986 9.678 357.986 11.154C357.986 12.666 358.598 13.566 359.606 13.566C360.632 13.566 361.244 12.666 361.244 11.154C361.244 9.678 360.614 8.76 359.606 8.76ZM368.678 14.106C370.532 14.106 371.702 15.492 371.702 17.688C371.702 19.866 370.514 21.252 368.678 21.252C366.806 21.252 365.636 19.866 365.636 17.688C365.636 15.474 366.824 14.106 368.678 14.106ZM368.678 15.222C367.652 15.222 367.04 16.086 367.04 17.508C367.04 18.93 367.652 19.794 368.678 19.794C369.668 19.794 370.298 18.93 370.298 17.508C370.298 16.104 369.668 15.222 368.678 15.222ZM385.885 10.92C388.693 10.92 390.403 12.846 390.403 16.086C390.403 19.308 388.693 21.252 385.885 21.252C383.059 21.252 381.367 19.308 381.367 16.086C381.367 12.846 383.059 10.92 385.885 10.92ZM385.885 12.108C384.157 12.108 383.077 13.512 383.077 15.798C383.077 18.102 384.139 18.462 385.885 18.462C387.613 18.462 388.693 18.084 388.693 15.798C388.693 13.548 387.613 12.108 385.885 12.108ZM398.781 7.68V9.012L397.323 8.85C396.513 8.85 396.225 9.066 396.225 10.29L396.297 11.154H398.871V12.756H396.297L396.567 21H394.245L394.497 12.756H393.039V11.154H394.497L394.587 10.47C394.587 8.274 395.829 7.5 397.341 7.5L398.781 7.68ZM416.859 21H415.239V19.596C414.501 20.676 413.439 21.252 411.837 21.252C409.839 21.252 408.543 20.028 408.543 18.138C408.543 15.924 410.037 14.79 412.971 14.79H415.239V14.628C415.239 13.134 414.339 12.234 412.449 12.108C411.333 12.108 410.253 12.378 409.263 12.918V11.604C410.451 11.154 411.567 10.92 412.611 10.92C415.473 10.92 416.859 12.378 416.859 15.384V21ZM414.339 15.978H412.881C410.523 15.978 409.911 16.482 409.893 17.688C410.073 18.696 410.919 18.786 412.089 18.786C413.709 18.786 414.339 18.444 414.339 16.338V15.978ZM427.288 12.954C426.37 12.45 425.452 12.198 424.516 12.198C422.41 12.198 421.294 13.692 421.294 16.086C421.456 17.778 422.338 18.354 424.444 18.462C425.38 18.462 426.334 18.588 427.252 18.084L427.288 20.622C426.388 21.036 425.434 21.252 424.336 21.252C421.384 21.252 419.494 19.254 419.494 16.086C419.494 12.882 421.384 10.92 424.444 10.92C425.434 10.92 426.406 11.118 427.288 11.532V12.954ZM437.096 12.954C436.178 12.45 435.26 12.198 434.324 12.198C432.218 12.198 431.102 13.692 431.102 16.086C431.264 17.778 432.146 18.354 434.252 18.462C435.188 18.462 436.142 18.588 437.06 18.084L437.096 20.622C436.196 21.036 435.242 21.252 434.144 21.252C431.192 21.252 429.302 19.254 429.302 16.086C429.302 12.882 431.192 10.92 434.252 10.92C435.242 10.92 436.214 11.118 437.096 11.532V12.954ZM448.147 15.672H440.803C440.839 18.3 442.135 18.75 444.277 18.858C445.519 18.858 446.689 18.876 447.841 18.264L447.877 20.496C446.707 21 445.483 21.252 444.223 21.252C441.091 21.144 439.111 19.29 439.111 16.176C439.237 12.954 440.983 10.92 443.953 10.92C446.581 11.028 447.931 12.252 448.147 15.06V15.672ZM446.743 14.25C446.563 13.152 445.555 11.766 443.953 11.766C442.153 11.766 440.983 13.08 440.983 14.268L446.743 14.25ZM457.785 12.792C456.867 12.342 455.877 12.09 454.833 12.09C453.213 12.09 452.331 12.684 452.331 13.656C452.331 14.538 452.853 14.952 454.581 15.33L455.139 15.456C457.425 15.942 458.307 16.68 458.307 18.282C458.307 20.118 456.777 21.252 454.239 21.252C453.195 21.252 452.061 21.054 450.783 20.64V18.264C451.989 18.894 453.141 19.2 454.275 19.2C455.805 19.2 456.471 18.732 456.471 17.886C456.273 17.526 456.111 17.274 455.967 17.112C455.841 16.95 455.265 16.77 454.257 16.536L453.699 16.41C451.701 15.996 450.855 15.348 450.855 13.818C450.855 11.964 452.223 10.92 454.635 10.92C455.841 10.92 456.903 11.1 457.785 11.442V12.792ZM467.945 12.792C467.027 12.342 466.037 12.09 464.993 12.09C463.373 12.09 462.491 12.684 462.491 13.656C462.491 14.538 463.013 14.952 464.741 15.33L465.299 15.456C467.585 15.942 468.467 16.68 468.467 18.282C468.467 20.118 466.937 21.252 464.399 21.252C463.355 21.252 462.221 21.054 460.943 20.64V18.264C462.149 18.894 463.301 19.2 464.435 19.2C465.965 19.2 466.631 18.732 466.631 17.886C466.433 17.526 466.271 17.274 466.127 17.112C466.001 16.95 465.425 16.77 464.417 16.536L463.859 16.41C461.861 15.996 461.015 15.348 461.015 13.818C461.015 11.964 462.383 10.92 464.795 10.92C466.001 10.92 467.063 11.1 467.945 11.442V12.792ZM472.903 9.372H471.283L471.373 7.32H472.813L472.903 9.372ZM471.103 21C471.337 17.544 471.391 14.25 471.373 11.154H472.813C472.705 14.106 472.795 17.418 473.173 21H471.103ZM476.75 19.218C476.39 18.462 476.318 12.99 475.976 7.32H477.596L477.434 12.468C478.1 11.298 479.126 10.92 480.566 10.92C482.96 10.92 484.616 12.99 484.616 16.086C484.616 19.182 482.96 21.252 480.566 21.252C477.992 21.252 477.218 20.514 476.75 19.218ZM483.572 15.726C483.5 13.44 482.672 12.072 480.944 12.072C479.234 12.072 478.208 13.422 478.208 15.798C478.442 17.616 478.604 18.372 480.944 18.372C482.384 18.264 483.302 17.76 483.572 15.726ZM490.768 21H487.24C487.312 16.446 487.438 12.684 487.69 8.112H489.22C489.004 12 488.896 15.096 488.86 19.002H490.768V21ZM502.428 15.672H495.084C495.12 18.3 496.416 18.75 498.558 18.858C499.8 18.858 500.97 18.876 502.122 18.264L502.158 20.496C500.988 21 499.764 21.252 498.504 21.252C495.372 21.144 493.392 19.29 493.392 16.176C493.518 12.954 495.264 10.92 498.234 10.92C500.862 11.028 502.212 12.252 502.428 15.06V15.672ZM501.024 14.25C500.844 13.152 499.836 11.766 498.234 11.766C496.434 11.766 495.264 13.08 495.264 14.268L501.024 14.25ZM350.066 41H347.888L345.314 31.154H346.934L348.95 38.048L350.786 34.412H353.054L354.89 38.048L356.906 31.154H358.526L355.952 41H353.702L351.92 36.536L350.066 41ZM369.573 35.672H362.229C362.265 38.3 363.561 38.75 365.703 38.858C366.945 38.858 368.115 38.876 369.267 38.264L369.303 40.496C368.133 41 366.909 41.252 365.649 41.252C362.517 41.144 360.537 39.29 360.537 36.176C360.663 32.954 362.409 30.92 365.379 30.92C368.007 31.028 369.357 32.252 369.573 35.06V35.672ZM368.169 34.25C367.989 33.152 366.981 31.766 365.379 31.766C363.579 31.766 362.409 33.08 362.409 34.268L368.169 34.25ZM373.163 39.218C372.803 38.462 372.731 32.99 372.389 27.32H374.009L373.847 32.468C374.513 31.298 375.539 30.92 376.979 30.92C379.373 30.92 381.029 32.99 381.029 36.086C381.029 39.182 379.373 41.252 376.979 41.252C374.405 41.252 373.631 40.514 373.163 39.218ZM379.985 35.726C379.913 33.44 379.085 32.072 377.357 32.072C375.647 32.072 374.621 33.422 374.621 35.798C374.855 37.616 375.017 38.372 377.357 38.372C378.797 38.264 379.715 37.76 379.985 35.726ZM390.654 32.792C389.736 32.342 388.746 32.09 387.702 32.09C386.082 32.09 385.2 32.684 385.2 33.656C385.2 34.538 385.722 34.952 387.45 35.33L388.008 35.456C390.294 35.942 391.176 36.68 391.176 38.282C391.176 40.118 389.646 41.252 387.108 41.252C386.064 41.252 384.93 41.054 383.652 40.64V38.264C384.858 38.894 386.01 39.2 387.144 39.2C388.674 39.2 389.34 38.732 389.34 37.886C389.142 37.526 388.98 37.274 388.836 37.112C388.71 36.95 388.134 36.77 387.126 36.536L386.568 36.41C384.57 35.996 383.724 35.348 383.724 33.818C383.724 31.964 385.092 30.92 387.504 30.92C388.71 30.92 389.772 31.1 390.654 31.442V32.792ZM395.612 29.372H393.992L394.082 27.32H395.522L395.612 29.372ZM393.812 41C394.046 37.544 394.1 34.25 394.082 31.154H395.522C395.414 34.106 395.504 37.418 395.882 41H393.812ZM399.693 31.154L399.783 28.706H401.493L401.403 31.154H403.689V32.414H401.403L401.313 36.698C401.313 38.318 401.655 38.588 402.987 38.588H404.661V41H402.987C400.503 41 399.603 40.226 399.603 37.76L399.693 32.414H398.505V31.154H399.693ZM416.33 35.672H408.986C409.022 38.3 410.318 38.75 412.46 38.858C413.702 38.858 414.872 38.876 416.024 38.264L416.06 40.496C414.89 41 413.666 41.252 412.406 41.252C409.274 41.144 407.294 39.29 407.294 36.176C407.42 32.954 409.166 30.92 412.136 30.92C414.764 31.028 416.114 32.252 416.33 35.06V35.672ZM414.926 34.25C414.746 33.152 413.738 31.766 412.136 31.766C410.336 31.766 409.166 33.08 409.166 34.268L414.926 34.25ZM425.968 32.792C425.05 32.342 424.06 32.09 423.016 32.09C421.396 32.09 420.514 32.684 420.514 33.656C420.514 34.538 421.036 34.952 422.764 35.33L423.322 35.456C425.608 35.942 426.49 36.68 426.49 38.282C426.49 40.118 424.96 41.252 422.422 41.252C421.378 41.252 420.244 41.054 418.966 40.64V38.264C420.172 38.894 421.324 39.2 422.458 39.2C423.988 39.2 424.654 38.732 424.654 37.886C424.456 37.526 424.294 37.274 424.15 37.112C424.024 36.95 423.448 36.77 422.44 36.536L421.882 36.41C419.884 35.996 419.038 35.348 419.038 33.818C419.038 31.964 420.406 30.92 422.818 30.92C424.024 30.92 425.086 31.1 425.968 31.442V32.792Z" fill="#FF00FE"/>
</g>
<defs>
<clipPath id="clip0_260_24">
<rect width="506" height="477" fill="white"/>
</clipPath>
</defs>
</svg>
