<svg width="527" height="478" viewBox="0 0 527 478" fill="none" xmlns="http://www.w3.org/2000/svg">
<path d="M229.94 256.971V473.601" stroke="#808184" stroke-width="8" stroke-miterlimit="10"/>
<path d="M300.37 50.521C390.67 78.931 455.88 160.501 455.88 256.691C455.88 376.491 354.72 473.611 229.94 473.611C105.16 473.611 4 376.481 4 256.691C4 136.901 105.16 39.771 229.94 39.771" stroke="#808184" stroke-width="8" stroke-miterlimit="10"/>
<path d="M229.94 256.691H455.88" stroke="#808184" stroke-width="8" stroke-miterlimit="10"/>
<path d="M4 256.691H229.94" stroke="#808184" stroke-width="8" stroke-miterlimit="10"/>
<path d="M229.52 43.171C227.41 43.241 225.31 44.061 223.67 45.621C0.449936 257.181 186.95 436.771 223.9 468.591C227.31 471.531 232.39 471.481 235.75 468.481C406.69 315.741 342.86 174.351 284.21 98.191" stroke="#808184" stroke-width="8" stroke-miterlimit="10"/>
<path d="M284.21 98.191C264.53 72.641 245.44 54.431 235.99 45.601C234.18 43.901 231.83 43.091 229.52 43.171" stroke="#FF00FE" stroke-width="8" stroke-miterlimit="10"/>
<path d="M265.15 156.911C342.56 147.851 396.69 110.321 396.69 110.321" stroke="#808184" stroke-width="8" stroke-miterlimit="10"/>
<path d="M228.36 158.841C241.09 159.011 253.39 158.291 265.16 156.921" stroke="#FF00FE" stroke-width="8" stroke-miterlimit="10"/>
<path d="M68.9301 104.511C124.32 144.441 179.5 158.181 228.35 158.841" stroke="#808184" stroke-width="8" stroke-miterlimit="10"/>
<path d="M399.01 400.581C217.14 281.741 61.67 401.441 61.67 401.441" stroke="#808184" stroke-width="8" stroke-miterlimit="10"/>
<path d="M229.94 39.771C254.53 39.771 278.21 43.541 300.37 50.521" stroke="#FF00FE" stroke-width="8" stroke-miterlimit="10"/>
<path d="M230.5 255.771L284.21 98.201" stroke="#FF00FE" stroke-width="10" stroke-linecap="round" stroke-linejoin="round"/>
<path d="M284.21 98.201L300 51.271" stroke="#FF00FE" stroke-width="10" stroke-linecap="round" stroke-linejoin="round"/>
<path d="M229.94 36.031V256.971" stroke="#FF00FE" stroke-width="8" stroke-miterlimit="10"/>
<path d="M331.5 127.271L331.5 130.271L334.5 130.271L334.5 127.271L331.5 127.271ZM331.5 30.271L331.5 27.271L328.5 27.271L328.5 30.271L331.5 30.271ZM380.621 32.3924C381.793 31.2209 381.793 29.3214 380.621 28.1498L361.529 9.05787C360.358 7.88629 358.458 7.88629 357.287 9.05786C356.115 10.2294 356.115 12.1289 357.287 13.3005L374.257 30.2711L357.287 47.2416C356.115 48.4132 356.115 50.3127 357.287 51.4843C358.458 52.6558 360.358 52.6558 361.529 51.4843L380.621 32.3924ZM249.5 130.271L331.5 130.271L331.5 124.271L249.5 124.271L249.5 130.271ZM334.5 127.271L334.5 30.271L328.5 30.271L328.5 127.271L334.5 127.271ZM331.5 33.271L378.5 33.2711L378.5 27.2711L331.5 27.271L331.5 33.271Z" fill="#FF00FE"/>
<path d="M397.672 10.568C399.928 10.736 401.272 12.44 401.272 14.672C401.272 18.44 398.8 20.336 394.432 20.336C392.968 20.336 391.408 20.048 389.752 19.472V15.776C391.072 16.544 392.656 16.952 394.36 16.952C395.848 16.952 396.976 16.616 397.768 15.944C398.536 15.272 398.92 14.744 398.92 14.336C398.92 12.728 397.408 11.384 394.816 11.384H392.776V9.44H394.912C397.24 9.44 398.512 8.48 398.512 6.728C398.512 4.952 397.192 3.944 394.816 3.944C393.52 3.944 392.056 4.208 390.28 4.808V2.936C392.08 2.432 393.64 2.192 395.032 2.192C398.632 2.192 400.864 3.944 400.864 6.728C400.864 8.648 399.712 10.04 397.672 10.568ZM408.807 2.192C411.279 2.192 412.863 4.016 412.863 6.944C412.863 9.896 411.303 11.72 408.807 11.72C406.335 11.72 404.775 9.896 404.775 6.944C404.775 4.04 406.335 2.192 408.807 2.192ZM410.343 20.336H408.447L419.511 2.192H421.383L410.343 20.336ZM408.807 3.68C407.463 3.68 406.647 4.904 406.647 6.872C406.647 8.888 407.463 10.088 408.807 10.088C410.175 10.088 410.991 8.888 410.991 6.872C410.991 4.904 410.151 3.68 408.807 3.68ZM420.903 10.808C423.375 10.808 424.935 12.656 424.935 15.584C424.935 18.488 423.351 20.336 420.903 20.336C418.407 20.336 416.847 18.488 416.847 15.584C416.847 12.632 418.431 10.808 420.903 10.808ZM420.903 12.296C419.535 12.296 418.719 13.448 418.719 15.344C418.719 17.24 419.535 18.392 420.903 18.392C422.223 18.392 423.063 17.24 423.063 15.344C423.063 13.472 422.223 12.296 420.903 12.296ZM443.846 6.56C447.59 6.56 449.87 9.128 449.87 13.448C449.87 17.744 447.59 20.336 443.846 20.336C440.078 20.336 437.822 17.744 437.822 13.448C437.822 9.128 440.078 6.56 443.846 6.56ZM443.846 8.144C441.542 8.144 440.102 10.016 440.102 13.064C440.102 16.136 441.518 16.616 443.846 16.616C446.15 16.616 447.59 16.112 447.59 13.064C447.59 10.064 446.15 8.144 443.846 8.144ZM461.041 2.24V4.016L459.097 3.8C458.017 3.8 457.633 4.088 457.633 5.72L457.729 6.872H461.161V9.008H457.729L458.089 20H454.993L455.329 9.008H453.385V6.872H455.329L455.449 5.96C455.449 3.032 457.105 2 459.121 2L461.041 2.24ZM400.84 40H398.68V38.128C397.696 39.568 396.28 40.336 394.144 40.336C391.48 40.336 389.752 38.704 389.752 36.184C389.752 33.232 391.744 31.72 395.656 31.72H398.68V31.504C398.68 29.512 397.48 28.312 394.96 28.144C393.472 28.144 392.032 28.504 390.712 29.224V27.472C392.296 26.872 393.784 26.56 395.176 26.56C398.992 26.56 400.84 28.504 400.84 32.512V40ZM397.48 33.304H395.536C392.392 33.304 391.576 33.976 391.552 35.584C391.792 36.928 392.92 37.048 394.48 37.048C396.64 37.048 397.48 36.592 397.48 33.784V33.304ZM414.746 29.272C413.522 28.6 412.298 28.264 411.05 28.264C408.242 28.264 406.754 30.256 406.754 33.448C406.97 35.704 408.146 36.472 410.954 36.616C412.202 36.616 413.474 36.784 414.698 36.112L414.746 39.496C413.546 40.048 412.274 40.336 410.81 40.336C406.874 40.336 404.354 37.672 404.354 33.448C404.354 29.176 406.874 26.56 410.954 26.56C412.274 26.56 413.57 26.824 414.746 27.376V29.272ZM427.824 29.272C426.6 28.6 425.376 28.264 424.128 28.264C421.32 28.264 419.832 30.256 419.832 33.448C420.048 35.704 421.224 36.472 424.032 36.616C425.28 36.616 426.552 36.784 427.776 36.112L427.824 39.496C426.624 40.048 425.352 40.336 423.888 40.336C419.952 40.336 417.432 37.672 417.432 33.448C417.432 29.176 419.952 26.56 424.032 26.56C425.352 26.56 426.648 26.824 427.824 27.376V29.272ZM442.558 32.896H432.766C432.814 36.4 434.542 37 437.398 37.144C439.054 37.144 440.614 37.168 442.15 36.352L442.198 39.328C440.638 40 439.006 40.336 437.326 40.336C433.15 40.192 430.51 37.72 430.51 33.568C430.678 29.272 433.006 26.56 436.966 26.56C440.47 26.704 442.27 28.336 442.558 32.08V32.896ZM440.686 31C440.446 29.536 439.102 27.688 436.966 27.688C434.566 27.688 433.006 29.44 433.006 31.024L440.686 31ZM455.408 29.056C454.184 28.456 452.864 28.12 451.472 28.12C449.312 28.12 448.136 28.912 448.136 30.208C448.136 31.384 448.832 31.936 451.136 32.44L451.88 32.608C454.928 33.256 456.104 34.24 456.104 36.376C456.104 38.824 454.064 40.336 450.68 40.336C449.288 40.336 447.776 40.072 446.072 39.52V36.352C447.68 37.192 449.216 37.6 450.728 37.6C452.768 37.6 453.656 36.976 453.656 35.848C453.392 35.368 453.176 35.032 452.984 34.816C452.816 34.6 452.048 34.36 450.704 34.048L449.96 33.88C447.296 33.328 446.168 32.464 446.168 30.424C446.168 27.952 447.992 26.56 451.208 26.56C452.816 26.56 454.232 26.8 455.408 27.256V29.056ZM468.955 29.056C467.731 28.456 466.411 28.12 465.019 28.12C462.859 28.12 461.683 28.912 461.683 30.208C461.683 31.384 462.379 31.936 464.683 32.44L465.427 32.608C468.475 33.256 469.651 34.24 469.651 36.376C469.651 38.824 467.611 40.336 464.227 40.336C462.835 40.336 461.323 40.072 459.619 39.52V36.352C461.227 37.192 462.763 37.6 464.275 37.6C466.315 37.6 467.203 36.976 467.203 35.848C466.939 35.368 466.723 35.032 466.531 34.816C466.363 34.6 465.595 34.36 464.251 34.048L463.507 33.88C460.843 33.328 459.715 32.464 459.715 30.424C459.715 27.952 461.539 26.56 464.755 26.56C466.363 26.56 467.779 26.8 468.955 27.256V29.056ZM475.566 24.496H473.406L473.526 21.76H475.446L475.566 24.496ZM473.166 40C473.478 35.392 473.55 31 473.526 26.872H475.446C475.302 30.808 475.422 35.224 475.926 40H473.166ZM480.696 37.624C480.216 36.616 480.12 29.32 479.664 21.76H481.824L481.608 28.624C482.496 27.064 483.864 26.56 485.784 26.56C488.976 26.56 491.184 29.32 491.184 33.448C491.184 37.576 488.976 40.336 485.784 40.336C482.352 40.336 481.32 39.352 480.696 37.624ZM489.792 32.968C489.696 29.92 488.592 28.096 486.288 28.096C484.008 28.096 482.64 29.896 482.64 33.064C482.952 35.488 483.168 36.496 486.288 36.496C488.208 36.352 489.432 35.68 489.792 32.968ZM499.386 40H494.682C494.778 33.928 494.946 28.912 495.282 22.816H497.322C497.034 28 496.89 32.128 496.842 37.336H499.386V40ZM514.933 32.896H505.141C505.189 36.4 506.917 37 509.773 37.144C511.429 37.144 512.989 37.168 514.525 36.352L514.573 39.328C513.013 40 511.381 40.336 509.701 40.336C505.525 40.192 502.885 37.72 502.885 33.568C503.053 29.272 505.381 26.56 509.341 26.56C512.845 26.704 514.645 28.336 514.933 32.08V32.896ZM513.061 31C512.821 29.536 511.477 27.688 509.341 27.688C506.941 27.688 505.381 29.44 505.381 31.024L513.061 31ZM396.088 60H393.184L389.752 46.872H391.912L394.6 56.064L397.048 51.216H400.072L402.52 56.064L405.208 46.872H407.368L403.936 60H400.936L398.56 54.048L396.088 60ZM422.097 52.896H412.305C412.353 56.4 414.081 57 416.937 57.144C418.593 57.144 420.153 57.168 421.689 56.352L421.737 59.328C420.177 60 418.545 60.336 416.865 60.336C412.689 60.192 410.049 57.72 410.049 53.568C410.217 49.272 412.545 46.56 416.505 46.56C420.009 46.704 421.809 48.336 422.097 52.08V52.896ZM420.225 51C419.985 49.536 418.641 47.688 416.505 47.688C414.105 47.688 412.545 49.44 412.545 51.024L420.225 51ZM426.883 57.624C426.403 56.616 426.307 49.32 425.851 41.76H428.011L427.795 48.624C428.683 47.064 430.051 46.56 431.971 46.56C435.163 46.56 437.371 49.32 437.371 53.448C437.371 57.576 435.163 60.336 431.971 60.336C428.539 60.336 427.507 59.352 426.883 57.624ZM435.979 52.968C435.883 49.92 434.779 48.096 432.475 48.096C430.195 48.096 428.827 49.896 428.827 53.064C429.139 55.488 429.355 56.496 432.475 56.496C434.395 56.352 435.619 55.68 435.979 52.968ZM450.205 49.056C448.981 48.456 447.661 48.12 446.269 48.12C444.109 48.12 442.933 48.912 442.933 50.208C442.933 51.384 443.629 51.936 445.933 52.44L446.677 52.608C449.725 53.256 450.901 54.24 450.901 56.376C450.901 58.824 448.861 60.336 445.477 60.336C444.085 60.336 442.573 60.072 440.869 59.52V56.352C442.477 57.192 444.013 57.6 445.525 57.6C447.565 57.6 448.453 56.976 448.453 55.848C448.189 55.368 447.973 55.032 447.781 54.816C447.613 54.6 446.845 54.36 445.501 54.048L444.757 53.88C442.093 53.328 440.965 52.464 440.965 50.424C440.965 47.952 442.789 46.56 446.005 46.56C447.613 46.56 449.029 46.8 450.205 47.256V49.056ZM456.816 44.496H454.656L454.776 41.76H456.696L456.816 44.496ZM454.416 60C454.728 55.392 454.8 51 454.776 46.872H456.696C456.552 50.808 456.672 55.224 457.176 60H454.416ZM462.258 46.872L462.378 43.608H464.658L464.538 46.872H467.586V48.552H464.538L464.418 54.264C464.418 56.424 464.874 56.784 466.65 56.784H468.882V60H466.65C463.338 60 462.138 58.968 462.138 55.68L462.258 48.552H460.674V46.872H462.258ZM484.441 52.896H474.649C474.697 56.4 476.425 57 479.281 57.144C480.937 57.144 482.497 57.168 484.033 56.352L484.081 59.328C482.521 60 480.889 60.336 479.209 60.336C475.033 60.192 472.393 57.72 472.393 53.568C472.561 49.272 474.889 46.56 478.849 46.56C482.353 46.704 484.153 48.336 484.441 52.08V52.896ZM482.569 51C482.329 49.536 480.985 47.688 478.849 47.688C476.449 47.688 474.889 49.44 474.889 51.024L482.569 51ZM497.291 49.056C496.067 48.456 494.747 48.12 493.355 48.12C491.195 48.12 490.019 48.912 490.019 50.208C490.019 51.384 490.715 51.936 493.019 52.44L493.763 52.608C496.811 53.256 497.987 54.24 497.987 56.376C497.987 58.824 495.947 60.336 492.563 60.336C491.171 60.336 489.659 60.072 487.955 59.52V56.352C489.563 57.192 491.099 57.6 492.611 57.6C494.651 57.6 495.539 56.976 495.539 55.848C495.275 55.368 495.059 55.032 494.867 54.816C494.699 54.6 493.931 54.36 492.587 54.048L491.843 53.88C489.179 53.328 488.051 52.464 488.051 50.424C488.051 47.952 489.875 46.56 493.091 46.56C494.699 46.56 496.115 46.8 497.291 47.256V49.056Z" fill="#FF00FE"/>
</svg>
