<svg width="472" height="477" viewBox="0 0 472 477" fill="none" xmlns="http://www.w3.org/2000/svg">
<path d="M316 254H458L451.5 197L438 157.5L411 112L377.5 81L345 223.5L316 254Z" fill="#FF00FE"/>
<path d="M231.94 253.2V469.83" stroke="#808184" stroke-width="8" stroke-miterlimit="10"/>
<path d="M369 76C405 99.5 457.88 156.73 457.88 252.92C457.88 372.72 356.72 469.84 231.94 469.84C107.16 469.84 6 372.71 6 252.92C6 133.13 107.16 36 231.94 36" stroke="#808184" stroke-width="8" stroke-miterlimit="10"/>
<path d="M231.94 252.92H457.88" stroke="#808184" stroke-width="8" stroke-miterlimit="10"/>
<path d="M25 202.92H250.94" stroke="#808184" stroke-width="8" stroke-miterlimit="10"/>
<path d="M231.52 39.4C229.41 39.47 227.31 40.29 225.67 41.85C2.45 253.41 188.95 433 225.9 464.82C229.31 467.76 234.39 467.71 237.75 464.71C408.69 311.97 344.86 170.58 286.21 94.42" stroke="#808184" stroke-width="8" stroke-miterlimit="10"/>
<path d="M335.21 122.42C315.53 96.87 296.44 78.66 286.99 69.83C285.18 68.13 282.83 67.32 280.52 67.4" stroke="#FF00FE" stroke-width="8" stroke-miterlimit="10"/>
<path d="M70.93 100.74C126.32 140.67 181.5 154.41 230.35 155.07" stroke="#808184" stroke-width="8" stroke-miterlimit="10"/>
<path d="M401.01 396.81C219.14 277.97 63.67 397.67 63.67 397.67" stroke="#808184" stroke-width="8" stroke-miterlimit="10"/>
<path d="M231.94 36C256.53 36 280.21 39.77 302.37 46.75" stroke="#FF00FE" stroke-width="8" stroke-miterlimit="10"/>
<path d="M232.5 252L286.21 94.4301" stroke="#FF00FE" stroke-width="10" stroke-linecap="round" stroke-linejoin="round"/>
<path d="M286.21 94.43L302 47.5" stroke="#FF00FE" stroke-width="10" stroke-linecap="round" stroke-linejoin="round"/>
<path d="M231.94 32.26V253.2" stroke="#FF00FE" stroke-width="8" stroke-miterlimit="10"/>
<path d="M300.663 17.1009L301.654 16.9671L299.686 16.8867L300.663 17.1009ZM349.77 34.1196C349.825 33.5701 349.425 33.0795 348.875 33.0239L339.921 32.1169C339.372 32.0613 338.881 32.4616 338.826 33.0111C338.77 33.5605 339.17 34.0511 339.72 34.1068L347.679 34.9129L346.873 42.8722C346.817 43.4217 347.218 43.9122 347.767 43.9679C348.316 44.0235 348.807 43.6232 348.863 43.0737L349.77 34.1196ZM240.55 87.4271C259.148 81.0388 272.13 74.2094 281.614 63.558C291.095 52.9091 296.982 38.5507 301.639 17.3151L299.686 16.8867C295.057 37.9928 289.266 51.9563 280.12 62.228C270.976 72.4973 258.382 79.1872 239.901 85.5356L240.55 87.4271ZM299.671 17.2347C301.374 29.8427 303.588 38.6743 306.416 44.4597C309.256 50.2702 312.815 53.1875 317.231 53.5509C321.515 53.9034 326.307 51.808 331.555 48.4316C336.837 45.0338 342.784 40.198 349.407 34.7935L348.142 33.244C341.493 38.6704 335.64 43.4257 330.473 46.7496C325.274 50.095 320.971 51.8519 317.395 51.5576C313.95 51.2742 310.883 49.0456 308.212 43.5815C305.53 38.0924 303.349 29.5207 301.654 16.9671L299.671 17.2347Z" fill="#FF00FE"/>
<path d="M384.241 37.1068C383.548 36.5806 382.8 36.2859 382.011 36.2859C380.788 36.2859 380.121 36.9805 380.121 38.1172C380.121 39.1486 380.516 39.6327 381.821 40.0748L382.242 40.2221C383.969 40.7904 384.636 41.6534 384.636 43.5268C384.636 45.6738 383.48 46.9999 381.563 46.9999C380.774 46.9999 379.917 46.7684 378.952 46.2842V43.5058C379.863 44.2425 380.733 44.6003 381.59 44.6003C382.746 44.6003 383.249 44.053 383.249 43.0637C383.099 42.6428 382.977 42.3481 382.868 42.1586C382.773 41.9692 382.338 41.7587 381.576 41.485L381.155 41.3377C379.645 40.8536 379.006 40.0958 379.006 38.3066C379.006 36.1386 380.04 34.9177 381.862 34.9177C382.773 34.9177 383.575 35.1282 384.241 35.5281V37.1068Z" fill="#FF00FE"/>
<path d="M374.961 22.4747H369.413C369.44 25.5479 370.419 26.0741 372.037 26.2004C372.976 26.2004 373.859 26.2214 374.73 25.5058L374.757 28.1159C373.873 28.7052 372.948 28.9999 371.997 28.9999C369.631 28.8736 368.135 26.7056 368.135 23.0641C368.23 19.2963 369.549 16.9177 371.793 16.9177C373.778 17.044 374.798 18.4754 374.961 21.759V22.4747ZM373.9 20.8118C373.764 19.5278 373.003 17.907 371.793 17.907C370.433 17.907 369.549 19.4436 369.549 20.8329L373.9 20.8118Z" fill="#FF00FE"/>
<path d="M372.393 33.1914L372.461 30.3287H373.753L373.685 33.1914H375.412V34.6649H373.685L373.617 39.6745C373.617 41.569 373.875 41.8847 374.881 41.8847H376.146V44.7053H374.881C373.005 44.7053 372.325 43.8002 372.325 40.9164L372.393 34.6649H371.495V33.1914H372.393Z" fill="#FF00FE"/>
<path d="M373.31 33.1076H372.086L372.154 30.708H373.242L373.31 33.1076ZM371.95 46.7053C372.127 42.6639 372.168 38.8119 372.154 35.1915H373.242C373.16 38.6435 373.228 42.5166 373.514 46.7053H371.95Z" fill="#FF00FE"/>
<path d="M371.564 37.1068C370.871 36.5806 370.123 36.2859 369.334 36.2859C368.111 36.2859 367.444 36.9805 367.444 38.1172C367.444 39.1486 367.839 39.6327 369.144 40.0748L369.565 40.2221C371.292 40.7904 371.959 41.6534 371.959 43.5268C371.959 45.6738 370.803 46.9999 368.886 46.9999C368.097 46.9999 367.24 46.7684 366.275 46.2842V43.5058C367.186 44.2425 368.056 44.6003 368.913 44.6003C370.069 44.6003 370.572 44.053 370.572 43.0637C370.422 42.6428 370.3 42.3481 370.191 42.1586C370.096 41.9692 369.661 41.7587 368.899 41.485L368.478 41.3377C366.968 40.8536 366.329 40.0958 366.329 38.3066C366.329 36.1386 367.363 34.9177 369.185 34.9177C370.096 34.9177 370.898 35.1282 371.564 35.5281V37.1068Z" fill="#FF00FE"/>
<path d="M361.351 44.6215C361.079 43.7374 361.025 37.3385 360.766 30.708H361.99L361.868 36.7281C362.371 35.3599 363.146 34.9178 364.234 34.9178C366.042 34.9178 367.293 37.3385 367.293 40.9589C367.293 44.5794 366.042 47 364.234 47C362.289 47 361.705 46.137 361.351 44.6215ZM366.504 40.5379C366.45 37.8647 365.825 36.265 364.519 36.265C363.227 36.265 362.452 37.8437 362.452 40.6221C362.629 42.7481 362.752 43.6322 364.519 43.6322C365.607 43.5059 366.301 42.9165 366.504 40.5379Z" fill="#FF00FE"/>
<path d="M361.639 36.4747H356.092C356.119 39.5479 357.098 40.0741 358.716 40.2004C359.654 40.2004 360.538 40.2214 361.408 39.5058L361.435 42.1159C360.551 42.7052 359.627 42.9999 358.675 42.9999C356.309 42.8736 354.813 40.7056 354.813 37.0641C354.909 33.2963 356.227 30.9177 358.471 30.9177C360.456 31.044 361.476 32.4754 361.639 35.759V36.4747ZM360.579 34.8118C360.443 33.5278 359.681 31.907 358.471 31.907C357.111 31.907 356.227 33.4436 356.227 34.8329L360.579 34.8118Z" fill="#FF00FE"/>
<path d="M349.904 46.7053H348.258L346.314 35.1914H347.538L349.061 43.2532L350.448 39.0013H352.161L353.548 43.2532L355.071 35.1914H356.294L354.35 46.7053H352.65L351.304 41.4851L349.904 46.7053Z" fill="#FF00FE"/>
<path d="M436 17.0869H430.452C430.479 20.16 431.458 20.6863 433.077 20.8126C434.015 20.8126 434.899 20.8336 435.769 20.1179L435.796 22.728C434.912 23.3174 433.988 23.6121 433.036 23.6121C430.67 23.4858 429.174 21.3177 429.174 17.6762C429.269 13.9085 430.588 11.5299 432.832 11.5299C434.817 11.6562 435.837 13.0875 436 16.3712V17.0869ZM434.939 15.424C434.803 14.14 434.042 12.5192 432.832 12.5192C431.472 12.5192 430.588 14.0558 430.588 15.445L434.939 15.424Z" fill="#FF00FE"/>
<path d="M430.192 23.3174H427.526C427.581 17.992 427.676 13.5927 427.866 8.24622H429.022C428.859 12.7928 428.777 16.4133 428.75 20.9809H430.192V23.3174Z" fill="#FF00FE"/>
<path d="M422.603 21.2335C422.331 20.3495 422.276 13.9505 422.018 7.32007H423.242L423.119 13.3401C423.623 11.9719 424.398 11.5299 425.485 11.5299C427.294 11.5299 428.545 13.9505 428.545 17.571C428.545 21.1914 427.294 23.6121 425.485 23.6121C423.541 23.6121 422.956 22.7491 422.603 21.2335ZM427.756 17.15C427.702 14.4768 427.076 12.877 425.771 12.877C424.479 12.877 423.704 14.4557 423.704 17.2342C423.881 19.3602 424.003 20.2442 425.771 20.2442C426.859 20.1179 427.552 19.5286 427.756 17.15Z" fill="#FF00FE"/>
<path d="M408.696 9.71967H407.473L407.541 7.32007H408.628L408.696 9.71967ZM407.337 23.3174C407.513 19.276 407.554 15.424 407.541 11.8035H408.628C408.547 15.2556 408.615 19.1286 408.9 23.3174H407.337Z" fill="#FF00FE"/>
<path d="M422.276 13.719C421.582 13.1928 420.835 12.8981 420.046 12.8981C418.822 12.8981 418.156 13.5927 418.156 14.7294C418.156 15.7608 418.55 16.2449 419.856 16.6869L420.277 16.8343C422.004 17.4026 422.67 18.2656 422.67 20.139C422.67 22.286 421.514 23.6121 419.597 23.6121C418.809 23.6121 417.952 23.3806 416.986 22.8964V20.1179C417.897 20.8547 418.768 21.2125 419.624 21.2125C420.78 21.2125 421.283 20.6652 421.283 19.6759C421.134 19.2549 421.011 18.9602 420.903 18.7708C420.807 18.5814 420.372 18.3709 419.611 18.0972L419.189 17.9499C417.68 17.4658 417.041 16.708 417.041 14.9188C417.041 12.7508 418.074 11.5299 419.896 11.5299C420.807 11.5299 421.61 11.7404 422.276 12.1403V13.719Z" fill="#FF00FE"/>
<path d="M416.995 17.0869H411.448C411.475 20.16 412.454 20.6863 414.072 20.8126C415.01 20.8126 415.894 20.8336 416.764 20.1179L416.791 22.728C415.908 23.3174 414.983 23.6121 414.031 23.6121C411.665 23.4858 410.169 21.3177 410.169 17.6762C410.265 13.9085 411.584 11.5299 413.827 11.5299C415.812 11.6562 416.832 13.0875 416.995 16.3712V17.0869ZM415.935 15.424C415.799 14.14 415.037 12.5192 413.827 12.5192C412.467 12.5192 411.584 14.0558 411.584 15.445L415.935 15.424Z" fill="#FF00FE"/>
<path d="M415.647 13.9085C414.954 13.3191 414.261 13.0244 413.553 13.0244C411.963 13.0244 411.12 14.7715 411.12 17.571C411.242 19.5496 411.908 20.2232 413.499 20.3495C414.206 20.3495 414.927 20.4968 415.62 19.9075L415.647 22.8754C414.968 23.3595 414.247 23.6121 413.417 23.6121C411.187 23.6121 409.76 21.2757 409.76 17.571C409.76 13.8243 411.187 11.5299 413.499 11.5299C414.247 11.5299 414.981 11.7614 415.647 12.2456V13.9085Z" fill="#FF00FE"/>
<path d="M405.888 14.3785C405.194 13.7892 404.501 13.4945 403.794 13.4945C402.203 13.4945 401.36 15.2416 401.36 18.0411C401.482 20.0197 402.148 20.6933 403.739 20.8196C404.446 20.8196 405.167 20.9669 405.86 20.3775L405.888 23.3455C405.208 23.8296 404.487 24.0822 403.658 24.0822C401.428 24.0822 400 21.7457 400 18.0411C400 14.2944 401.428 12 403.739 12C404.487 12 405.221 12.2315 405.888 12.7157V14.3785Z" fill="#FF00FE"/>
<path d="M400.36 23.3174H399.136V21.6756C398.578 22.9385 397.776 23.6121 396.566 23.6121C395.057 23.6121 394.078 22.1808 394.078 19.9706C394.078 17.3816 395.206 16.0555 397.422 16.0555H399.136V15.866C399.136 14.1189 398.456 13.0665 397.028 12.9191C396.185 12.9191 395.369 13.2349 394.621 13.8664V12.3298C395.519 11.8035 396.362 11.5299 397.151 11.5299C399.313 11.5299 400.36 13.2349 400.36 16.7501V23.3174ZM398.456 17.4447H397.354C395.573 17.4447 395.111 18.0341 395.097 19.4444C395.233 20.6231 395.872 20.7284 396.756 20.7284C397.98 20.7284 398.456 20.3284 398.456 17.8657V17.4447Z" fill="#FF00FE"/>
<path d="M386.703 7.74113V9.29877L385.602 9.10932C384.99 9.10932 384.773 9.36191 384.773 10.7933L384.827 11.8036H386.771V13.677H384.827L385.031 23.3175H383.277L383.467 13.677H382.366V11.8036H383.467L383.535 11.0037C383.535 8.43575 384.473 7.53064 385.616 7.53064L386.703 7.74113Z" fill="#FF00FE"/>
<path d="M382.413 11C384.534 11 385.826 13.2523 385.826 17.0411C385.826 20.8089 384.534 23.0822 382.413 23.0822C380.278 23.0822 379 20.8089 379 17.0411C379 13.2523 380.278 11 382.413 11ZM382.413 12.3892C381.108 12.3892 380.292 14.0311 380.292 16.7043C380.292 19.3986 381.094 19.8196 382.413 19.8196C383.718 19.8196 384.534 19.3776 384.534 16.7043C384.534 14.0732 383.718 12.3892 382.413 12.3892Z" fill="#FF00FE"/>
<path d="M352.4 9C353.871 9 354.814 10.709 354.814 13.4524C354.814 16.2183 353.886 17.9272 352.4 17.9272C350.929 17.9272 350 16.2183 350 13.4524C350 10.7315 350.929 9 352.4 9ZM353.314 26H352.186L358.771 9H359.886L353.314 26ZM352.4 10.3942C351.6 10.3942 351.114 11.541 351.114 13.3849C351.114 15.2738 351.6 16.3981 352.4 16.3981C353.214 16.3981 353.7 15.2738 353.7 13.3849C353.7 11.541 353.2 10.3942 352.4 10.3942ZM359.6 17.0728C361.071 17.0728 362 18.8042 362 21.5476C362 24.2685 361.057 26 359.6 26C358.114 26 357.186 24.2685 357.186 21.5476C357.186 18.7817 358.129 17.0728 359.6 17.0728ZM359.6 18.4669C358.786 18.4669 358.3 19.5463 358.3 21.3228C358.3 23.0992 358.786 24.1786 359.6 24.1786C360.386 24.1786 360.886 23.0992 360.886 21.3228C360.886 19.5688 360.386 18.4669 359.6 18.4669Z" fill="#FF00FE"/>
<path d="M350.813 14.8479C352.183 15.0053 353 16.6019 353 18.6931C353 22.2235 351.498 24 348.844 24C347.954 24 347.006 23.7302 346 23.1905V19.7275C346.802 20.4471 347.765 20.8294 348.8 20.8294C349.704 20.8294 350.39 20.5145 350.871 19.8849C351.337 19.2553 351.571 18.7606 351.571 18.3783C351.571 16.8717 350.652 15.6124 349.077 15.6124H347.837V13.791H349.135C350.55 13.791 351.323 12.8915 351.323 11.25C351.323 9.58598 350.521 8.64153 349.077 8.64153C348.29 8.64153 347.4 8.88889 346.321 9.45106V7.69709C347.415 7.22487 348.362 7 349.208 7C351.396 7 352.752 8.64153 352.752 11.25C352.752 13.0489 352.052 14.3532 350.813 14.8479Z" fill="#FF00FE"/>
<path d="M232.5 466.5V344H250L324 358L300.5 395L269 434L232.5 466.5Z" fill="#808184"/>
</svg>
